<svg xmlns="http://www.w3.org/2000/svg" version="1.0" preserveAspectRatio="xMidYMid meet" viewBox="260.18 48.05 236.32 247.44">

<g transform="translate(0.000000,338.000000) scale(0.100000,-0.100000)" fill="#000000" stroke="none">
<path d="M3600 2884 c-392 -71 -713 -320 -884 -685 -90 -194 -121 -351 -113 -584 6 -184 32 -307 97 -458 264 -612 946 -894 1542 -637 362 156 620 481 710 895 18 83 17 399 -1 490 -62 310 -248 602 -495 777 -250 176 -576 253 -856 202z m365 -19 c117 -20 230 -57 335 -111 107 -54 151 -84 243 -165 536 -470 547 -1348 23 -1836 -445 -414 -1116 -413 -1563 2 -308 285 -448 736 -362 1165 61 301 257 597 509 767 232 156 543 224 815 178z"/>
<path d="M3800 2422 c-8 -3 -54 -27 -101 -54 -58 -32 -98 -48 -122 -48 -39 0 -70 -26 -43 -36 13 -5 12 -9 -7 -25 -37 -31 2 -23 53 11 25 16 56 30 69 30 l24 0 -27 -21 c-14 -11 -26 -25 -26 -30 0 -18 27 -8 55 21 16 17 37 30 47 30 10 0 17 5 16 10 -2 6 20 30 47 54 33 29 47 48 40 54 -5 5 -17 7 -25 4z m-70 -72 c-19 -16 -42 -29 -50 -30 -8 0 5 14 30 30 58 37 64 37 20 0z"/>
<path d="M3161 2387 c-31 -37 -22 -43 25 -18 73 39 77 24 10 -38 -35 -32 -74 -64 -87 -70 -21 -11 -20 -9 5 12 35 30 19 45 -18 16 -34 -27 -35 -59 -1 -59 24 0 57 25 155 116 33 31 55 43 84 46 l39 4 -39 -34 c-44 -39 -140 -102 -154 -102 -5 0 -12 -4 -15 -10 -8 -12 66 -10 83 3 8 6 12 6 12 -1 0 -5 22 -10 50 -10 27 0 48 4 45 8 -3 5 11 18 31 30 27 15 34 24 26 32 -12 12 -33 5 -82 -29 l-25 -17 18 21 c11 12 16 26 13 32 -3 5 11 23 31 40 36 30 37 31 18 45 -15 11 -44 15 -110 13 -86 -2 -92 -3 -114 -30z"/>
<path d="M4116 2407 c-22 -7 -41 -18 -44 -25 -5 -15 8 -15 45 -2 l28 10 -30 -25 c-16 -14 -38 -25 -47 -25 -10 0 -18 -6 -18 -13 0 -7 -13 -26 -30 -42 -55 -53 -34 -62 26 -11 24 21 55 36 81 41 59 9 108 44 108 75 0 22 -5 25 -40 27 -22 1 -58 -3 -79 -10z m99 -17 c6 -10 -28 -34 -65 -45 -23 -6 -22 -4 10 24 38 33 46 36 55 21z"/>
<path d="M3890 2355 c-7 -8 -25 -15 -41 -15 -31 0 -49 -17 -22 -22 13 -2 11 -7 -12 -22 -21 -14 -27 -15 -22 -4 8 21 -7 40 -26 32 -9 -3 -17 -10 -17 -15 0 -4 -21 -21 -47 -36 -35 -20 -43 -29 -30 -31 10 -2 24 2 32 8 11 9 15 9 15 1 0 -15 43 -14 58 1 9 9 12 9 12 0 0 -22 20 -12 56 28 20 22 45 40 56 40 14 0 18 5 14 15 -3 8 -1 15 4 15 6 0 10 5 10 10 0 15 -26 12 -40 -5z"/>
<path d="M4390 2345 c-10 -13 -9 -15 9 -15 12 0 21 6 21 15 0 8 -4 15 -9 15 -5 0 -14 -7 -21 -15z"/>
<path d="M4610 2350 c-8 -5 -27 -10 -42 -10 -16 0 -28 -4 -28 -10 0 -5 8 -10 17 -10 15 0 14 -2 -3 -14 -16 -13 -19 -13 -22 0 -5 19 -21 18 -58 -5 -31 -19 -32 -19 -27 0 7 27 -15 24 -62 -8 -34 -22 -37 -23 -21 -5 28 32 13 38 -29 12 -33 -21 -36 -21 -33 -4 4 27 -27 29 -61 5 -28 -20 -29 -20 -24 -2 8 31 -16 35 -45 8 -15 -13 -42 -32 -59 -41 -18 -9 -33 -18 -33 -21 0 -2 28 -4 63 -3 107 1 105 2 74 -30 -53 -55 -20 -58 49 -5 42 31 55 36 98 35 28 0 56 4 63 10 9 7 13 7 13 -1 0 -14 35 -14 62 0 15 8 19 8 14 0 -17 -27 17 -7 50 29 20 22 45 40 55 40 12 0 19 7 19 20 0 22 -7 25 -30 10z"/>
<path d="M4480 2028 c-5 -13 -14 -49 -19 -80 -10 -59 -45 -135 -104 -227 l-34 -53 -7 50 c-7 55 -25 77 -55 67 -23 -7 -40 -47 -22 -53 22 -7 10 -22 -19 -22 -22 0 -30 5 -30 18 0 32 -48 121 -90 166 -173 188 -475 196 -658 18 -53 -52 -97 -127 -110 -189 -8 -36 -10 -38 -44 -35 -20 2 -51 -4 -68 -13 -32 -16 -33 -16 -61 11 l-30 28 -43 -23 c-40 -22 -46 -23 -95 -10 -41 10 -59 10 -83 1 -18 -6 -34 -10 -36 -7 -3 2 23 60 56 127 63 126 84 188 63 188 -6 0 -11 -8 -11 -19 0 -10 -34 -87 -75 -171 -42 -84 -74 -155 -71 -157 3 -3 27 3 55 13 44 15 56 16 104 4 51 -12 57 -11 96 11 l41 23 30 -29 30 -28 39 18 c23 10 50 15 64 11 21 -5 25 -13 31 -67 6 -67 33 -135 71 -185 l25 -33 -20 -47 c-12 -26 -20 -56 -18 -67 3 -17 7 -16 36 13 37 35 63 35 134 -1 119 -60 279 -64 402 -9 24 11 51 16 68 13 31 -6 84 4 74 15 -4 3 -23 5 -43 3 l-37 -3 57 52 c79 72 119 155 125 261 4 72 6 79 26 79 11 0 34 7 50 15 l29 15 -6 -44 c-4 -24 -31 -92 -62 -150 -57 -111 -64 -136 -41 -155 11 -9 17 -8 29 3 14 15 57 134 72 200 3 16 25 56 48 90 23 33 54 84 69 111 l27 50 -5 -36 c-5 -29 -2 -41 15 -58 11 -11 31 -21 44 -21 12 0 38 -9 57 -20 83 -47 110 -60 110 -52 0 15 -112 79 -158 92 -24 6 -45 17 -48 25 -7 16 23 155 43 202 15 38 17 93 3 93 -6 0 -15 -10 -20 -22z m-577 -28 c77 -24 170 -89 210 -147 67 -97 88 -233 53 -333 -42 -118 -145 -214 -269 -252 -102 -30 -230 -23 -321 20 -88 41 -158 109 -199 191 -29 59 -32 74 -32 156 0 78 4 98 29 152 45 99 145 182 261 219 63 20 193 17 268 -6z m387 -245 c0 -8 -9 -15 -20 -15 -20 0 -26 11 -13 23 12 13 33 7 33 -8z m-51 -303 c-11 -34 -25 -62 -30 -62 -5 0 -9 3 -9 6 0 11 53 125 56 121 2 -2 -6 -31 -17 -65z m-787 -126 c-9 -5 -25 -16 -36 -25 -17 -15 -18 -15 -1 21 16 31 20 35 36 25 17 -11 17 -12 1 -21z"/>
<path d="M2940 1960 c0 -5 5 -10 11 -10 5 0 7 5 4 10 -3 6 -8 10 -11 10 -2 0 -4 -4 -4 -10z"/>
<path d="M3141 1846 c-20 -24 -9 -39 14 -22 15 11 17 18 9 26 -8 8 -14 7 -23 -4z"/>
<path d="M3190 1819 c0 -5 5 -7 10 -4 6 3 10 8 10 11 0 2 -4 4 -10 4 -5 0 -10 -5 -10 -11z"/>
<path d="M4540 1303 c-68 -150 -90 -202 -90 -211 0 -6 9 -14 21 -17 14 -5 18 -12 14 -23 -36 -89 -78 -202 -81 -222 -5 -25 -5 -25 11 -5 27 33 195 319 195 332 0 6 -9 14 -19 18 -19 6 -18 9 10 71 32 72 36 94 17 94 -7 0 -23 3 -35 6 -18 5 -25 -2 -43 -43z"/>
<path d="M3392 1148 c-14 -14 -16 -48 -3 -48 4 0 6 -11 4 -24 l-5 -24 147 1 c81 1 149 0 151 -2 2 -2 -1 -10 -8 -18 -6 -7 -8 -16 -5 -20 4 -3 15 4 25 17 17 21 27 23 124 24 90 1 103 -1 87 -12 -11 -7 -19 -20 -19 -28 0 -22 27 -16 48 11 11 14 24 25 30 25 5 0 15 6 21 14 20 23 -3 28 -124 28 -102 0 -113 2 -108 16 5 14 2 13 -18 -3 -33 -28 -119 -24 -119 6 0 24 -12 24 -35 -1 -14 -15 -31 -20 -72 -20 -29 0 -53 3 -53 6 0 3 11 15 25 26 14 11 25 23 25 28 0 13 -105 11 -118 -2z m35 -25 c-9 -9 -19 -14 -23 -11 -10 10 6 28 24 28 15 0 15 -1 -1 -17z"/>
<path d="M4145 1136 c-21 -17 -34 -21 -42 -14 -22 18 -46 1 -40 -28 4 -23 2 -25 -19 -20 -17 5 -24 2 -24 -8 0 -12 17 -14 88 -13 87 2 117 10 107 28 -4 5 1 9 9 9 9 0 16 9 16 20 0 26 -8 25 -37 -2 -16 -15 -27 -18 -33 -12 -7 7 -4 16 10 29 43 39 12 49 -35 11z m-50 -35 c3 -5 1 -12 -5 -16 -5 -3 -10 1 -10 9 0 18 6 21 15 7z"/>
</g>
</svg>