<?xml version="1.0" standalone="no"?>
<!DOCTYPE svg PUBLIC "-//W3C//DTD SVG 20010904//EN"
 "http://www.w3.org/TR/2001/REC-SVG-20010904/DTD/svg10.dtd">
<svg version="1.0" xmlns="http://www.w3.org/2000/svg"
 width="320.000000pt" height="640.000000pt" viewBox="0 0 320.000000 640.000000"
 preserveAspectRatio="xMidYMid meet">

<g transform="translate(0.000000,640.000000) scale(0.100000,-0.100000)"
fill="#000000" stroke="none">
<path d="M1560 6362 c-70 -45 -172 -82 -232 -82 -26 0 -49 -4 -52 -8 -2 -4 2
-207 10 -451 15 -439 16 -444 39 -480 25 -38 55 -137 55 -183 0 -15 5 -30 10
-33 9 -6 269 8 388 21 49 5 52 7 52 33 0 43 30 133 54 166 22 29 24 48 46 467
12 240 20 443 17 452 -4 10 -18 16 -36 16 -50 0 -186 48 -241 85 -29 19 -53
35 -54 34 0 0 -26 -17 -56 -37z m-47 -204 c21 -28 19 -59 -5 -90 -39 -51 -122
-14 -120 53 2 68 84 93 125 37z m280 21 c24 -11 47 -47 47 -73 0 -30 -41 -66
-74 -66 -68 0 -95 81 -42 127 31 26 36 27 69 12z m-289 -500 c52 -41 23 -129
-43 -129 -35 0 -71 40 -71 77 0 29 41 73 68 73 11 0 31 -9 46 -21z m319 -11
c23 -27 22 -59 -4 -92 -41 -53 -119 -21 -119 48 0 68 79 96 123 44z"/>
<path d="M1386 4943 c-3 -76 -13 -460 -21 -853 -9 -393 -18 -752 -21 -797 l-6
-83 -47 0 c-70 0 -192 -34 -274 -77 -98 -50 -229 -181 -279 -278 -55 -106 -72
-181 -71 -315 1 -140 16 -201 107 -432 84 -211 85 -231 20 -361 -26 -50 -85
-148 -132 -217 -103 -151 -155 -258 -188 -388 -84 -325 -1 -648 218 -858 156
-150 348 -235 605 -269 149 -20 467 -20 615 0 385 51 640 212 768 488 92 196
99 457 19 702 -34 103 -126 277 -187 353 -32 41 -83 119 -113 175 -50 96 -54
106 -52 167 1 56 9 82 61 195 84 183 103 249 109 380 6 141 -11 227 -73 354
-40 81 -60 109 -138 186 -69 69 -109 100 -166 128 -85 42 -174 67 -237 67 -24
0 -43 1 -43 3 -2 9 -29 1602 -30 1720 l0 147 -219 0 -219 0 -6 -137z m373
-2358 c248 -135 225 -527 -36 -625 -116 -44 -242 -16 -332 72 -147 144 -129
416 35 529 70 48 110 59 199 56 66 -3 90 -8 134 -32z m291 -1830 l0 -95 -53 0
c-29 0 -57 -4 -63 -10 -15 -15 -652 -14 -670 1 -9 7 -32 10 -64 6 l-50 -6 0
99 0 100 450 0 450 0 0 -95z"/>
</g>
</svg>
